<?xml version="1.0" encoding="utf-8"?>
<!-- Generator: Adobe Illustrator 19.0.0, SVG Export Plug-In . SVG Version: 6.00 Build 0)  -->
<svg version="1.1" id="Capa_1" xmlns="http://www.w3.org/2000/svg" xmlns:xlink="http://www.w3.org/1999/xlink" x="0px" y="0px"
	 viewBox="0 0 140 140" style="enable-background:new 0 0 140 140;" xml:space="preserve">
<style type="text/css">
	.st0{fill:#42C4AA;}
</style>
<g id="XMLID_4392_">
	<circle id="XMLID_4407_" class="st0" cx="95.6" cy="92.1" r="5.6"/>
	<circle id="XMLID_4406_" class="st0" cx="57.5" cy="70.7" r="11.2"/>
	<path id="XMLID_4394_" class="st0" d="M70,0C31.3,0,0,31.3,0,70s31.3,70,70,70s70-31.3,70-70S108.7,0,70,0z M67.1,88.3
		c-1.1,0.6-2.3,1.1-3.5,1.5l-1.2,6.9h-9.7l-1.2-6.9c-1.2-0.4-2.4-0.9-3.5-1.5L42,92.3l-6.9-6.9l4.3-6.1c-0.5-1-0.9-2-1.2-3.1
		l-7.5-1.3v-9.7l8-1.4c0.3-0.8,0.7-1.7,1.1-2.5l-4.7-6.7l6.9-6.9l7,4.9c0.7-0.3,1.4-0.6,2.1-0.8l1.5-8.4h9.7l1.5,8.4
		c0.7,0.2,1.4,0.5,2.1,0.8l7-4.9l6.9,6.9l-4.7,6.7c0.4,0.8,0.8,1.6,1.1,2.5l8,1.4v9.7l-7.5,1.3c-0.3,1.1-0.7,2.1-1.2,3.1l4.3,6.1
		l-6.9,6.9L67.1,88.3z M111.5,95.1l-6,0.8c-0.4,1.1-1,2-1.7,2.9l2.3,5.6l-5.2,3l-3.7-4.8c-0.5,0.1-1.1,0.2-1.7,0.2s-1.1-0.1-1.7-0.2
		l-3.7,4.8l-5.2-3l2.3-5.6c-0.7-0.9-1.3-1.8-1.7-2.9l-6-0.8v-6l6-0.8c0.4-1.1,1-2,1.7-2.9L85,79.8l5.2-3l3.7,4.8
		c0.5-0.1,1.1-0.2,1.7-0.2s1.1,0.1,1.7,0.2l3.7-4.8l5.2,3l-2.3,5.6c0.7,0.9,1.3,1.8,1.7,2.9l6,0.8V95.1z M111.5,50.9l-6,0.8
		c-0.4,1.1-1,2-1.7,2.9l2.3,5.6l-5.2,3l-3.7-4.8c-0.5,0.1-1.1,0.2-1.7,0.2s-1.1-0.1-1.7-0.2l-3.7,4.8l-5.2-3l2.3-5.6
		c-0.7-0.9-1.3-1.8-1.7-2.9l-6-0.8v-6l6-0.8c0.4-1.1,1-2,1.7-2.9L85,35.6l5.2-3l3.7,4.8c0.5-0.1,1.1-0.2,1.7-0.2s1.1,0.1,1.7,0.2
		l3.7-4.8l5.2,3l-2.3,5.6c0.7,0.9,1.3,1.8,1.7,2.9l6,0.8V50.9z"/>
	<circle id="XMLID_4393_" class="st0" cx="95.6" cy="47.9" r="5.6"/>
</g>
</svg>
