<?xml version="1.0" encoding="utf-8"?>
<!-- Generator: Adobe Illustrator 19.0.0, SVG Export Plug-In . SVG Version: 6.00 Build 0)  -->
<svg version="1.1" id="Capa_1" xmlns="http://www.w3.org/2000/svg" xmlns:xlink="http://www.w3.org/1999/xlink" x="0px" y="0px"
	 viewBox="0 0 140 140" style="enable-background:new 0 0 140 140;" xml:space="preserve">
<style type="text/css">
	.st0{fill:#42C4AA;}
</style>
<g id="XMLID_1822_">
	<path id="XMLID_1826_" class="st0" d="M64.2,41.2c-12.9,0-23.3,10.5-23.3,23.3s10.5,23.3,23.3,23.3s23.3-10.5,23.3-23.3
		S77,41.2,64.2,41.2z M64.2,50.2c-5.3,0-10.1,2.9-12.7,7.5c-0.6,1.1-1.7,1.7-2.9,1.7c-0.5,0-1.1-0.1-1.6-0.4
		c-1.6-0.9-2.2-2.9-1.3-4.5c3.7-6.8,10.8-11,18.5-11c1.8,0,3.3,1.5,3.3,3.3C67.5,48.7,66,50.2,64.2,50.2z"/>
	<path id="XMLID_1823_" class="st0" d="M70,0C31.3,0,0,31.3,0,70s31.3,70,70,70s70-31.3,70-70S108.7,0,70,0z M106.4,106.7
		c-0.9,1-2.1,1.4-3.4,1.4c-1.2,0-2.3-0.4-3.2-1.3L83.4,90.9c-5.4,3.9-12,6.3-19.2,6.3c-18,0-32.7-14.7-32.7-32.7
		s14.7-32.7,32.7-32.7s32.7,14.7,32.7,32.7c0,7.5-2.5,14.3-6.8,19.9l16.3,15.7C108.2,101.9,108.2,104.8,106.4,106.7z"/>
</g>
</svg>
