<?xml version="1.0" encoding="utf-8"?>
<!-- Generator: Adobe Illustrator 19.0.0, SVG Export Plug-In . SVG Version: 6.00 Build 0)  -->
<svg version="1.1" id="Capa_1" xmlns="http://www.w3.org/2000/svg" xmlns:xlink="http://www.w3.org/1999/xlink" x="0px" y="0px"
	 viewBox="0 0 140 140" style="enable-background:new 0 0 140 140;" xml:space="preserve">
<style type="text/css">
	.st0{fill:#42C4AA;}
</style>
<g id="XMLID_1808_">
	<path id="XMLID_1812_" class="st0" d="M69.8,30.4c-12.8,0-23.2,9-23.2,20.1c0,10,4.4,14.3,9.1,18.8c3.8,3.7,7.7,7.5,8.3,13.9h11.8
		c0.6-6.5,4.5-10.3,8.3-14c4.6-4.5,9-8.8,9-18.8C93.1,39.4,82.7,30.4,69.8,30.4z M83.9,54c-1.9,0-3.5-1.6-3.5-3.5
		c0-4.1-4.9-7.5-10.6-7.5c-1.9,0-3.5-1.6-3.5-3.5s1.6-3.5,3.5-3.5c9.7,0,17.6,6.5,17.6,14.5C87.4,52.4,85.9,54,83.9,54z"/>
	<path id="XMLID_1809_" class="st0" d="M70,0C31.3,0,0,31.3,0,70s31.3,70,70,70s70-31.3,70-70S108.7,0,70,0z M89.6,74.3
		c-3.6,3.5-5.4,5.9-5.7,9.6c1.4,0.8,2.3,2.2,2.3,3.9c0,2.5-2,4.5-4.5,4.5c2.5,0,4.5,2,4.5,4.5c0,2.5-2,4.5-4.5,4.5h-3
		c2.5,0,4.5,2,4.5,4.5s-2,4.5-4.5,4.5h-0.5c0,0.1,0,0.2,0,0.4c0,3.5-3.8,6.3-8.4,6.3s-8.4-2.8-8.4-6.3c0-0.1,0-0.2,0-0.4h-0.5
		c-2.5,0-4.5-2-4.5-4.5s2-4.5,4.5-4.5h-3c-2.5,0-4.5-2-4.5-4.5c0-2.5,2-4.5,4.5-4.5c-2.5,0-4.5-2-4.5-4.5s2-4.5,4.5-4.5
		c-0.7-3.3-3.2-5.6-6.6-8.9c-5-4.8-11.4-10.9-11.4-23.8c0-15,13.4-27.1,30.1-27.1s30.2,12.2,30.2,27.1
		C100.1,63.4,94.5,69.4,89.6,74.3z"/>
</g>
</svg>
