<?xml version="1.0" encoding="utf-8"?>
<!-- Generator: Adobe Illustrator 19.0.0, SVG Export Plug-In . SVG Version: 6.00 Build 0)  -->
<svg version="1.1" id="Capa_1" xmlns="http://www.w3.org/2000/svg" xmlns:xlink="http://www.w3.org/1999/xlink" x="0px" y="0px"
	 viewBox="-467 269 24 24" style="enable-background:new -467 269 24 24;" xml:space="preserve">
<style type="text/css">
	.st0{fill:#FFFFFF;}
</style>
<path class="st0" d="M-455,276v-4h-10v18h20v-14H-455z M-461,288h-2v-2h2V288z M-461,284h-2v-2h2V284z M-461,280h-2v-2h2V280z
	 M-461,276h-2v-2h2V276z M-457,288h-2v-2h2V288z M-457,284h-2v-2h2V284z M-457,280h-2v-2h2V280z M-457,276h-2v-2h2V276z M-447,288
	h-8v-2h2v-2h-2v-2h2v-2h-2v-2h8V288z M-449,280h-2v2h2V280z M-449,284h-2v2h2V284z"/>
</svg>
