<?xml version="1.0" encoding="UTF-8" standalone="no"?>
<!-- Generator: Adobe Illustrator 19.0.0, SVG Export Plug-In . SVG Version: 6.00 Build 0)  -->

<svg
   xmlns:dc="http://purl.org/dc/elements/1.1/"
   xmlns:cc="http://creativecommons.org/ns#"
   xmlns:rdf="http://www.w3.org/1999/02/22-rdf-syntax-ns#"
   xmlns:svg="http://www.w3.org/2000/svg"
   xmlns="http://www.w3.org/2000/svg"
   xmlns:sodipodi="http://sodipodi.sourceforge.net/DTD/sodipodi-0.dtd"
   xmlns:inkscape="http://www.inkscape.org/namespaces/inkscape"
   version="1.1"
   id="Capa_1"
   x="0px"
   y="0px"
   viewBox="0 0 372.8 153.1"
   style="enable-background:new 0 0 372.8 153.1;"
   xml:space="preserve"
   sodipodi:docname="REDPOINTMonoNoMoto.svg"
   inkscape:version="0.92.2 (5c3e80d, 2017-08-06)"><metadata
     id="metadata43"><rdf:RDF><cc:Work
         rdf:about=""><dc:format>image/svg+xml</dc:format><dc:type
           rdf:resource="http://purl.org/dc/dcmitype/StillImage" /><dc:title></dc:title></cc:Work></rdf:RDF></metadata><defs
     id="defs41" /><sodipodi:namedview
     pagecolor="#ffffff"
     bordercolor="#666666"
     borderopacity="1"
     objecttolerance="10"
     gridtolerance="10"
     guidetolerance="10"
     inkscape:pageopacity="0"
     inkscape:pageshadow="2"
     inkscape:window-width="1920"
     inkscape:window-height="988"
     id="namedview39"
     showgrid="false"
     inkscape:zoom="3.1330473"
     inkscape:cx="209.29741"
     inkscape:cy="55.020209"
     inkscape:window-x="0"
     inkscape:window-y="0"
     inkscape:window-maximized="1"
     inkscape:current-layer="XMLID_16_" /><style
     type="text/css"
     id="style2">
	.st0{fill:#010002;}
	.st1{fill:#030104;}
</style><g
     id="XMLID_16_"><g
       id="XMLID_1_"><path
         id="XMLID_2_"
         class="st0"
         d="M80.9,69.1c-4.9,0-6.9,5.1-7.6,10L87.7,79C87.7,79,87.9,69.1,80.9,69.1z" /><path
         id="XMLID_3_"
         class="st0"
         d="M40.8,59.1H28.3v15.8h13c1.6,0,3.5-3.4,3.5-7.7C44.9,63.3,43.1,59.1,40.8,59.1z" /><path
         id="XMLID_4_"
         class="st0"
         d="M108.9,82.9c0,9.2,6.8,12.5,10.6,12.5s5.3-2.9,5.3-2.9V72.2c0,0-2.6-2.5-6.8-2.5    S108.9,73.7,108.9,82.9z" /><path
         id="XMLID_5_"
         class="st0"
         d="M76.5,0C34.3,0,0,34.3,0,76.5s34.3,76.5,76.5,76.5s76.5-34.3,76.5-76.5S118.8,0,76.5,0z     M124.7,104.9v-4.3c0,0-3.3,4.3-10.3,4.3c-4.9,0-14.6-4.3-16.2-18.7L73.1,87c0.5,4.3,2.5,8.4,7.8,8.6c6.3,0.2,14.9-1.5,14.9-1.5    l0.9,9.1c0,0-7.1,2.4-14.9,2.4c-5.4,0-12.9-1.4-16.9-8l-4.3,9.2c-9.2-4.3-17-11.7-22.4-20.8h-9.8v19H17.2V48h11.1h12.5    c9.8,0,15.1,9.9,15.1,19.1c0,6-2.2,12.3-6.5,15.8c3.9,5.6,9,10.1,14.7,13.1c-1.3-2.7-2.1-6.1-2.1-10.5c0-17,6.6-25.3,18.3-25.3    c9.1,0,15.9,3.8,18.4,15c3.2-12.2,15.1-15,18.1-15c5.2,0,7.9,1.5,7.9,1.5V45h11.1v59.9H124.7z" /></g><path
       id="XMLID_8_"
       class="st0"
       d="M221,60.3c-8.1,0-15.1,4.7-19.1,11.8c0.2-1.3,0.3-2.7,0.3-4.2c0-20.3-17.8-19.8-28.6-19.8h-12.7   v60.2h12.7v-17c7.8,0,19.6-1.6,25.3-10.6c-0.3,1.5-0.4,3.1-0.4,4.7c0,13.8,10.1,24.9,22.5,24.9s22.5-11.2,22.5-24.9   C243.5,71.4,233.4,60.3,221,60.3z M173.6,80.4V59.6c9.3,0,15.7,2,15.7,10C189.3,77.5,183.2,80.4,173.6,80.4z M221,98.2   c-5,0-9.1-5.8-9.1-13c0-7.2,4.1-13,9.1-13c5,0,9.1,5.8,9.1,13C230,92.4,226,98.2,221,98.2z" /><rect
       id="XMLID_12_"
       x="244.5"
       y="62.3"
       class="st0"
       width="12.6"
       height="45.9" /><path
       id="XMLID_13_"
       class="st0"
       d="M289.1,60.3c-5.3,0-10.8,3.6-14.9,7v-5h-12.6v45.9h12.6V76.5c3.3-2,14.9-8.7,14.9,0.5v31.1   h12.6V77C301.7,68.3,299.2,60.3,289.1,60.3z" /><circle
       id="XMLID_14_"
       class="st0"
       cx="250.8"
       cy="43.3"
       r="13.1" /><path
       id="XMLID_15_"
       class="st0"
       d="M334.8,96.6c-9.1,1.2-13.2,2.3-13.2-4v-20h12.3V62.3h-12.3v-9.7H309v9.7h-6.3v10.3h6.3v20   c0,9.8,2.1,16.7,9.3,16.7c7.2,0,17.5-1.2,17.5-1.2L334.8,96.6z" /></g></svg>