<?xml version="1.0" encoding="utf-8"?>
<!-- Generator: Adobe Illustrator 19.0.0, SVG Export Plug-In . SVG Version: 6.00 Build 0)  -->
<svg version="1.1" id="Capa_1" xmlns="http://www.w3.org/2000/svg" xmlns:xlink="http://www.w3.org/1999/xlink" x="0px" y="0px"
	 viewBox="0 0 372.8 153.1" style="enable-background:new 0 0 372.8 153.1;" xml:space="preserve">
<style type="text/css">
	.st0{fill:#010002;}
	.st1{fill:#030104;}
</style>
<g id="XMLID_16_">
	<g id="XMLID_1_">
		<path id="XMLID_2_" class="st0" d="M80.9,69.1c-4.9,0-6.9,5.1-7.6,10L87.7,79C87.7,79,87.9,69.1,80.9,69.1z"/>
		<path id="XMLID_3_" class="st0" d="M40.8,59.1H28.3v15.8h13c1.6,0,3.5-3.4,3.5-7.7C44.9,63.3,43.1,59.1,40.8,59.1z"/>
		<path id="XMLID_4_" class="st0" d="M108.9,82.9c0,9.2,6.8,12.5,10.6,12.5s5.3-2.9,5.3-2.9V72.2c0,0-2.6-2.5-6.8-2.5
			S108.9,73.7,108.9,82.9z"/>
		<path id="XMLID_5_" class="st0" d="M76.5,0C34.3,0,0,34.3,0,76.5s34.3,76.5,76.5,76.5s76.5-34.3,76.5-76.5S118.8,0,76.5,0z
			 M124.7,104.9v-4.3c0,0-3.3,4.3-10.3,4.3c-4.9,0-14.6-4.3-16.2-18.7L73.1,87c0.5,4.3,2.5,8.4,7.8,8.6c6.3,0.2,14.9-1.5,14.9-1.5
			l0.9,9.1c0,0-7.1,2.4-14.9,2.4c-5.4,0-12.9-1.4-16.9-8l-4.3,9.2c-9.2-4.3-17-11.7-22.4-20.8h-9.8v19H17.2V48h11.1h12.5
			c9.8,0,15.1,9.9,15.1,19.1c0,6-2.2,12.3-6.5,15.8c3.9,5.6,9,10.1,14.7,13.1c-1.3-2.7-2.1-6.1-2.1-10.5c0-17,6.6-25.3,18.3-25.3
			c9.1,0,15.9,3.8,18.4,15c3.2-12.2,15.1-15,18.1-15c5.2,0,7.9,1.5,7.9,1.5V45h11.1v59.9H124.7z"/>
	</g>
	<path id="XMLID_8_" class="st0" d="M221,60.3c-8.1,0-15.1,4.7-19.1,11.8c0.2-1.3,0.3-2.7,0.3-4.2c0-20.3-17.8-19.8-28.6-19.8h-12.7
		v60.2h12.7v-17c7.8,0,19.6-1.6,25.3-10.6c-0.3,1.5-0.4,3.1-0.4,4.7c0,13.8,10.1,24.9,22.5,24.9s22.5-11.2,22.5-24.9
		C243.5,71.4,233.4,60.3,221,60.3z M173.6,80.4V59.6c9.3,0,15.7,2,15.7,10C189.3,77.5,183.2,80.4,173.6,80.4z M221,98.2
		c-5,0-9.1-5.8-9.1-13c0-7.2,4.1-13,9.1-13c5,0,9.1,5.8,9.1,13C230,92.4,226,98.2,221,98.2z"/>
	<rect id="XMLID_12_" x="244.5" y="62.3" class="st0" width="12.6" height="45.9"/>
	<path id="XMLID_13_" class="st0" d="M289.1,60.3c-5.3,0-10.8,3.6-14.9,7v-5h-12.6v45.9h12.6V76.5c3.3-2,14.9-8.7,14.9,0.5v31.1
		h12.6V77C301.7,68.3,299.2,60.3,289.1,60.3z"/>
	<circle id="XMLID_14_" class="st0" cx="250.8" cy="43.3" r="13.1"/>
	<path id="XMLID_15_" class="st0" d="M334.8,96.6c-9.1,1.2-13.2,2.3-13.2-4v-20h12.3V62.3h-12.3v-9.7H309v9.7h-6.3v10.3h6.3v20
		c0,9.8,2.1,16.7,9.3,16.7c7.2,0,17.5-1.2,17.5-1.2L334.8,96.6z"/>
	<g id="XMLID_36_">
		<path id="XMLID_91_" class="st1" d="M153.3,126l-1.9,4.6h-1.9l6.2-14.9h1.4l6.1,14.9h-2l-1.9-4.6H153.3z M156.9,124.5
			c0.9,0,1.1,0,1.9,0c-0.4-0.7-0.4-0.9-0.8-1.8l-0.5-1.3c-0.6-1.6-0.7-1.8-1.2-3.2h-0.1c-0.5,1.4-0.6,1.7-1.2,3.2l-0.5,1.3
			c-0.4,0.9-0.4,1-0.8,1.7c0.8,0,1,0,1.9,0H156.9z"/>
		<path id="XMLID_89_" class="st1" d="M166.9,123.1c0.9-1.7,1.8-2.6,2.7-2.6c0.5,0,0.8,0.1,1.6,0.4l-0.4,1.5
			c-0.7-0.2-0.9-0.3-1.2-0.3c-0.9,0-1.6,0.6-2.5,2v6.4h-1.8v-5.9c0-2.5-0.1-3-0.7-3.6l1.5-0.6C166.6,121,166.8,121.6,166.9,123.1
			L166.9,123.1z"/>
		<path id="XMLID_86_" class="st1" d="M181.3,136.4h-1.8v-3.6c0-1.5,0-1.8,0.1-3.2l-0.1,0c-0.9,0.8-1.7,1.2-2.8,1.2
			c-2.6,0-4.4-2-4.4-4.8c0-3.2,2.1-5.4,5.2-5.4c1.2,0,2,0.2,3.8,0.7V136.4z M179.5,123.9c0-0.7,0-0.8,0.1-1.5
			c-0.7-0.3-1.3-0.5-2-0.5c-2,0-3.3,1.4-3.3,3.6c0,2.2,1.2,3.7,3.1,3.7c0.9,0,1.4-0.2,2.3-1c-0.1-0.6-0.1-0.7-0.1-1.4V123.9z"/>
		<path id="XMLID_84_" class="st1" d="M192.7,127.5c0,1.1,0,1.1,0.1,1.4c0.1,0.4,0.4,0.6,0.9,0.6c0.1,0,0.4,0,0.6-0.1l-0.3,1.3
			c-0.4,0.1-0.5,0.1-0.8,0.1c-1.2,0-1.8-0.5-2-1.5l0,0c-1,1.1-2,1.6-3.3,1.6c-1.3,0-2.4-0.6-2.9-1.5c-0.3-0.6-0.4-1.3-0.4-2.5v-6.1
			h1.8v6c0,1.9,0.6,2.6,2,2.6c1,0,1.7-0.4,2.5-1.3v-7.3h1.8V127.5z"/>
		<path id="XMLID_81_" class="st1" d="M198.1,117.1c0,0.7-0.5,1.2-1.1,1.2c-0.6,0-1.1-0.5-1.1-1.2c0-0.7,0.5-1.2,1.1-1.2
			C197.6,115.9,198.1,116.5,198.1,117.1z M197.9,130.6H196v-9.9h1.8V130.6z"/>
		<path id="XMLID_79_" class="st1" d="M206.3,122.1H204c-0.2,0-0.3,0-0.5-0.1c0.1,0.2,0.1,0.3,0.1,0.5v4.8c0,1.5,0.3,1.9,1.4,1.9
			c0.6,0,1-0.1,1.8-0.4l0.3,1.2c-0.8,0.4-1.6,0.6-2.6,0.6c-1,0-1.9-0.4-2.3-1c-0.3-0.5-0.4-1.1-0.4-2.7v-4.5c0-0.2,0-0.3,0.1-0.5
			c-0.2,0.1-0.3,0.1-0.5,0.1h-1.6v-1.1c2.5-0.1,2.5-0.2,2.9-3h1.1l-0.1,2.3c0,0.2,0,0.3-0.1,0.5c0.2-0.1,0.3-0.1,0.5-0.1h2.2V122.1z
			"/>
		<path id="XMLID_76_" class="st1" d="M210,125.6c-0.2,0-0.2,0-0.4-0.1c0,2.4,1.2,3.8,3.3,3.8c1,0,2-0.4,2.7-1.1l0.9,1
			c-1.1,1.2-2.3,1.7-4,1.7c-2.8,0-4.8-2.1-4.8-5.1c0-3,2-5.2,4.8-5.2c2.4,0,3.9,1.6,3.9,4l-0.8,1H210z M214.1,124.4
			c0.4,0,0.4,0,0.7,0.1c-0.1-1.6-1.1-2.6-2.5-2.6c-1.4,0-2.4,0.9-2.7,2.6c0.5-0.1,0.6-0.1,1.2-0.1H214.1z"/>
		<path id="XMLID_74_" class="st1" d="M225.3,122.9c-0.9-0.6-1.5-0.8-2.2-0.8c-1.8,0-3,1.4-3,3.4c0,2.3,1.3,3.8,3.3,3.8
			c0.8,0,1.4-0.2,2.3-0.7l0.7,1.2c-1,0.8-2.1,1.1-3.4,1.1c-2.8,0-4.8-2.1-4.8-5c0-3,2.2-5.3,5-5.3c1.1,0,2.1,0.3,3.1,1L225.3,122.9z
			"/>
		<path id="XMLID_72_" class="st1" d="M233.4,122.1h-2.2c-0.2,0-0.3,0-0.5-0.1c0.1,0.2,0.1,0.3,0.1,0.5v4.8c0,1.5,0.3,1.9,1.4,1.9
			c0.6,0,1-0.1,1.8-0.4l0.3,1.2c-0.8,0.4-1.6,0.6-2.6,0.6c-1,0-1.9-0.4-2.3-1c-0.3-0.5-0.4-1.1-0.4-2.7v-4.5c0-0.2,0-0.3,0.1-0.5
			c-0.2,0.1-0.3,0.1-0.5,0.1h-1.6v-1.1c2.5-0.1,2.5-0.2,2.9-3h1.1l-0.1,2.3c0,0.2,0,0.3-0.1,0.5c0.2-0.1,0.3-0.1,0.5-0.1h2.2V122.1z
			"/>
		<path id="XMLID_70_" class="st1" d="M243.9,127.5c0,1.1,0,1.1,0.1,1.4c0.1,0.4,0.4,0.6,0.9,0.6c0.1,0,0.4,0,0.6-0.1l-0.3,1.3
			c-0.4,0.1-0.5,0.1-0.8,0.1c-1.2,0-1.8-0.5-2-1.5l0,0c-1,1.1-2,1.6-3.3,1.6c-1.3,0-2.4-0.6-2.9-1.5c-0.3-0.6-0.4-1.3-0.4-2.5v-6.1
			h1.8v6c0,1.9,0.6,2.6,2,2.6c1,0,1.7-0.4,2.5-1.3v-7.3h1.8V127.5z"/>
		<path id="XMLID_68_" class="st1" d="M249.1,123.1c0.9-1.7,1.8-2.6,2.7-2.6c0.5,0,0.8,0.1,1.6,0.4l-0.4,1.5
			c-0.7-0.2-0.9-0.3-1.2-0.3c-0.9,0-1.6,0.6-2.5,2v6.4h-1.8v-5.9c0-2.5-0.1-3-0.7-3.6l1.5-0.6C248.8,121,249,121.6,249.1,123.1
			L249.1,123.1z"/>
		<path id="XMLID_65_" class="st1" d="M254.6,121.6c1.4-0.8,2.4-1,3.6-1c1,0,2,0.4,2.5,1c0.5,0.5,0.7,1.3,0.7,2.7v3.2
			c0,1.1,0,1.1,0.1,1.4c0.1,0.4,0.4,0.6,0.9,0.6c0.1,0,0.4,0,0.6-0.1l-0.3,1.3c-0.4,0.1-0.6,0.1-0.9,0.1c-1.1,0-1.6-0.4-1.9-1.3
			c-1.1,1-1.9,1.3-3,1.3c-1.7,0-2.8-1.1-2.8-2.8c0-2.2,1.7-3.3,5.6-3.6c-0.1-0.1-0.1-0.2-0.1-0.4v-0.2c0-1.2-0.6-1.8-1.7-1.8
			c-1,0-1.7,0.3-3.2,1.1V121.6z M259.5,126.5c0-0.4,0-0.5,0.1-0.9c-2.8,0.4-3.8,1.1-3.8,2.5c0,0.9,0.6,1.5,1.6,1.5
			c0.7,0,1-0.1,2.1-0.8V126.5z"/>
		<path id="XMLID_62_" class="st1" d="M277.9,115v12.4c0,1.1,0,1.1,0.1,1.4c0.1,0.4,0.4,0.6,0.8,0.6c0.2,0,0.4,0,0.6-0.1l-0.3,1.3
			c-0.4,0.1-0.5,0.1-0.9,0.1c-1.1,0-1.7-0.4-1.9-1.3c-1,0.9-1.8,1.3-3.1,1.3c-2.6,0-4.4-2-4.4-4.9c0-3,2.1-5.3,4.8-5.3
			c0.9,0,1.5,0.2,2.5,0.8c-0.1-1-0.1-1.3-0.1-2.3V115H277.9z M276.1,124.5c0-0.6,0-0.8,0.1-1.4c-0.8-0.8-1.5-1.1-2.4-1.1
			c-1.7,0-3,1.5-3,3.7c0,2.2,1.2,3.6,3,3.6c0.9,0,1.4-0.2,2.3-1c-0.1-0.6-0.1-0.7-0.1-1.4V124.5z"/>
		<path id="XMLID_59_" class="st1" d="M282.8,125.6c-0.2,0-0.2,0-0.4-0.1c0,2.4,1.2,3.8,3.3,3.8c1,0,2-0.4,2.7-1.1l0.9,1
			c-1.1,1.2-2.3,1.7-4,1.7c-2.8,0-4.8-2.1-4.8-5.1c0-3,2-5.2,4.8-5.2c2.4,0,3.9,1.6,3.9,4l-0.8,1H282.8z M286.9,124.4
			c0.4,0,0.4,0,0.7,0.1c-0.1-1.6-1.1-2.6-2.5-2.6c-1.4,0-2.4,0.9-2.7,2.6c0.5-0.1,0.6-0.1,1.2-0.1H286.9z"/>
		<path id="XMLID_57_" class="st1" d="M298.3,122.5c0.8-1.3,2-1.9,3.4-1.9c2,0,3.3,1.4,3.3,3.5v6.6h-1.8v-5.9c0-1.9-0.6-2.7-2-2.7
			c-1,0-1.8,0.4-2.8,1.6v7.1h-1.8v-5.9c0-2.5-0.1-3-0.7-3.6l1.5-0.6C297.9,120.9,298.1,121.5,298.3,122.5L298.3,122.5z"/>
		<path id="XMLID_54_" class="st1" d="M309.6,125.6c-0.2,0-0.2,0-0.4-0.1c0,2.4,1.2,3.8,3.3,3.8c1,0,2-0.4,2.7-1.1l0.9,1
			c-1.1,1.2-2.3,1.7-4,1.7c-2.8,0-4.8-2.1-4.8-5.1c0-3,2-5.2,4.8-5.2c2.4,0,3.9,1.6,3.9,4l-0.8,1H309.6z M313.8,124.4
			c0.4,0,0.4,0,0.7,0.1c-0.1-1.6-1.1-2.6-2.5-2.6c-1.4,0-2.4,0.9-2.7,2.6c0.5-0.1,0.6-0.1,1.2-0.1H313.8z"/>
		<path id="XMLID_50_" class="st1" d="M320.5,127.8c-0.4,0.4-0.5,0.6-0.5,1c0,0.5,0.4,0.7,1.4,0.9l3,0.6c1.5,0.3,2.4,1.4,2.4,2.8
			c0,2.2-2,3.8-4.9,3.8c-2.6,0-4.5-1.3-4.5-3.2c0-1.3,0.8-2.2,2.6-2.8v-0.1c-1.1-0.4-1.5-0.8-1.5-1.5c0-0.7,0.4-1.2,1.3-1.8l0.1,0
			l0,0c-1.3-0.6-1.9-1.7-1.9-3.2c0-2.2,1.6-3.7,4.1-3.7c0.6,0,1,0.1,1.8,0.4h3.5v1.2l-1.2-0.1c-0.6,0-0.8-0.1-1.3-0.2l0,0.1
			c1,0.9,1.3,1.5,1.3,2.6c0,2.1-1.6,3.6-3.9,3.6C321.5,127.9,321.1,127.9,320.5,127.8L320.5,127.8z M320.9,131.2
			c-1.2,0.6-1.7,1.3-1.7,2.2c0,1.2,1.3,2.2,3.1,2.2c1.7,0,2.9-0.8,2.9-2c0-1-0.6-1.6-2.4-1.9L320.9,131.2z M319.8,124.1
			c0,1.6,0.8,2.6,2.2,2.6c1.4,0,2.2-0.9,2.2-2.4c0-1.6-0.9-2.7-2.3-2.7C320.6,121.6,319.8,122.6,319.8,124.1z"/>
		<path id="XMLID_47_" class="st1" d="M338.6,125.7c0,3-2.1,5.2-5,5.2c-3,0-5-2.1-5-5.1c0-3,2.1-5.2,5.1-5.2
			C336.5,120.5,338.6,122.7,338.6,125.7z M330.5,125.5c0,2.3,1.4,4,3.3,4c1.7,0,2.9-1.4,2.9-3.4c0-2.3-1.4-4-3.2-4
			C331.7,122,330.5,123.4,330.5,125.5z"/>
		<path id="XMLID_45_" class="st1" d="M347.6,122.9c-0.9-0.6-1.5-0.8-2.2-0.8c-1.8,0-3,1.4-3,3.4c0,2.3,1.3,3.8,3.3,3.8
			c0.8,0,1.4-0.2,2.3-0.7l0.7,1.2c-1,0.8-2.1,1.1-3.4,1.1c-2.8,0-4.8-2.1-4.8-5c0-3,2.2-5.3,5-5.3c1.1,0,2.1,0.3,3.1,1L347.6,122.9z
			"/>
		<path id="XMLID_42_" class="st1" d="M352.5,117.1c0,0.7-0.5,1.2-1.1,1.2c-0.6,0-1.1-0.5-1.1-1.2c0-0.7,0.5-1.2,1.1-1.2
			C352,115.9,352.5,116.5,352.5,117.1z M352.3,130.6h-1.8v-9.9h1.8V130.6z"/>
		<path id="XMLID_39_" class="st1" d="M364.9,125.7c0,3-2.1,5.2-5,5.2c-3,0-5-2.1-5-5.1c0-3,2.1-5.2,5.1-5.2
			C362.8,120.5,364.9,122.7,364.9,125.7z M356.7,125.5c0,2.3,1.4,4,3.3,4c1.7,0,2.9-1.4,2.9-3.4c0-2.3-1.4-4-3.2-4
			C357.9,122,356.7,123.4,356.7,125.5z"/>
		<path id="XMLID_37_" class="st1" d="M372.1,122.9c-1-0.7-1.4-0.8-2.1-0.8c-0.9,0-1.5,0.5-1.5,1.2c0,0.6,0.4,0.9,1.4,1.4l1.4,0.6
			c1.2,0.5,1.8,1.4,1.8,2.6c0,1.7-1.5,3-3.4,3c-1.4,0-2.5-0.5-3.4-1.5l0.9-1.2c0.9,0.9,1.7,1.3,2.6,1.3c0.9,0,1.6-0.6,1.6-1.4
			c0-0.6-0.3-0.9-1.4-1.4c-2.6-1-3.2-1.7-3.2-3.2c0-1.7,1.4-3,3.1-3c1,0,1.9,0.3,2.8,1L372.1,122.9z"/>
	</g>
</g>
</svg>
